<svg xmlns="http://www.w3.org/2000/svg" viewBox="0 0 128 160"><defs><linearGradient id="m" x1="0" x2="1"><stop offset="0" stop-color="#737d8e"/><stop offset="1" stop-color="#cfd5e2"/></linearGradient><linearGradient id="s" x1="0" x2="0" y1="0" y2="1"><stop offset="0" stop-color="#b9c0cb"/><stop offset="1" stop-color="#5a6678"/></linearGradient></defs><rect x="46" y="8" width="36" height="18" rx="8" fill="url(#m)"/><rect x="52.0" y="20" width="24" height="20" rx="6" fill="url(#s)"/><rect x="25.0" y="42" width="78" height="18" rx="9" fill="url(#m)"/><rect x="37.0" y="56" width="54" height="40" rx="12" fill="url(#s)"/><path d="M40 60 L16 112 L30 116 L50 72 Z" fill="url(#m)"/><path d="M88 60 L110 112 L98 116 L78 72 Z" fill="url(#m)"/><rect x="39.0" y="96" width="50" height="18" rx="8" fill="url(#m)"/><path d="M45.0 110 L44 150 L52 154 L58 116 Z" fill="url(#s)"/><path d="M83.0 110 L84 150 L76 154 L70 116 Z" fill="url(#s)"/><rect x="46" y="46" width="36" height="12" rx="6" fill="#9edcff" opacity=".8"/><rect x="54" y="26" width="8" height="4" rx="2" fill="#86e7ff"/><rect x="66" y="26" width="8" height="4" rx="2" fill="#86e7ff"/></svg>