<svg xmlns="http://www.w3.org/2000/svg" viewBox="0 0 160 96">
  <defs>
    <filter id="glow" x="-30%" y="-40%" width="160%" height="180%">
      <feGaussianBlur stdDeviation="2" result="blur"/>
      <feMerge><feMergeNode in="blur"/><feMergeNode in="SourceGraphic"/></feMerge>
    </filter>
  </defs>
  <ellipse cx="82" cy="80" rx="62" ry="8" fill="#071226" opacity=".34"/>
  <circle cx="42" cy="74" r="15" fill="#17142d"/>
  <circle cx="42" cy="74" r="8" fill="#6756ff"/>
  <circle cx="42" cy="74" r="3.5" fill="#ff7cc9"/>
  <circle cx="118" cy="73" r="14" fill="#17142d"/>
  <circle cx="118" cy="73" r="7" fill="#6756ff"/>
  <circle cx="118" cy="73" r="3.5" fill="#ff7cc9"/>
  <path d="M43 66 C61 48 86 45 111 65" fill="none" stroke="#d85aa6" stroke-width="12" stroke-linecap="round"/>
  <path d="M69 49 L86 30 L118 30" fill="none" stroke="#6756ff" stroke-width="9" stroke-linecap="round" stroke-linejoin="round"/>
  <path d="M58 48 L91 38 L112 52 L84 63 Z" fill="#ff7cc9" stroke="#ffd5f0" stroke-opacity=".42" stroke-width="1.4"/>
  <path d="M70 42 H98 L88 54 H61 Z" fill="#c9fbff" filter="url(#glow)"/>
  <path d="M118 32 L147 43 L119 51 Z" fill="#44efff" filter="url(#glow)" opacity=".92"/>
  <path d="M30 59 L56 52 L49 64 Z" fill="#6756ff" opacity=".78"/>
  <path d="M93 61 L124 58 L116 67 Z" fill="#d85aa6" opacity=".8"/>
</svg>
