<svg xmlns="http://www.w3.org/2000/svg" viewBox="0 0 256 256">
    <defs><filter id="s"><feDropShadow dx="0" dy="8" stdDeviation="8" flood-color="#09101e" flood-opacity="0.35"/></filter></defs>
    <g filter="url(#s)">
      <rect x="82" y="18" width="92" height="56" rx="18" fill="#ff6a5c"/>
      <rect x="96" y="30" width="18" height="12" rx="6" fill="#d7e4ff"/><rect x="142" y="30" width="18" height="12" rx="6" fill="#d7e4ff"/>
      <rect x="68" y="72" width="120" height="86" rx="26" fill="#4f7bff"/>
      <rect x="96" y="86" width="64" height="46" rx="12" fill="#d7e4ff" opacity="0.42"/>
      <rect x="36" y="86" width="36" height="90" rx="16" fill="#4f7bff"/>
      <rect x="184" y="86" width="36" height="90" rx="16" fill="#4f7bff"/>
      <rect x="46" y="98" width="16" height="44" rx="8" fill="#ff6a5c" opacity="0.9"/>
      <rect x="194" y="98" width="16" height="44" rx="8" fill="#ff6a5c" opacity="0.9"/>
      <rect x="84" y="154" width="34" height="82" rx="14" fill="#ff6a5c"/>
      <rect x="138" y="154" width="34" height="82" rx="14" fill="#ff6a5c"/>
      <rect x="78" y="226" width="46" height="14" rx="7" fill="#111827"/>
      <rect x="132" y="226" width="46" height="14" rx="7" fill="#111827"/>
      <polygon points="128,52 148,72 128,92 108,72" fill="#d7e4ff" opacity="0.85"/>
    </g></svg>