<svg xmlns="http://www.w3.org/2000/svg" viewBox="0 0 128 160"><defs><linearGradient id="m" x1="0" x2="1"><stop offset="0" stop-color="#d6413b"/><stop offset="1" stop-color="#52b5ff"/></linearGradient><linearGradient id="s" x1="0" x2="0" y1="0" y2="1"><stop offset="0" stop-color="#cfd7e8"/><stop offset="1" stop-color="#5a6678"/></linearGradient></defs><rect x="46" y="8" width="36" height="18" rx="8" fill="url(#m)"/><rect x="53.0" y="20" width="22" height="20" rx="6" fill="url(#s)"/><rect x="29.0" y="42" width="70" height="18" rx="9" fill="url(#m)"/><rect x="41.0" y="56" width="46" height="40" rx="12" fill="url(#s)"/><path d="M40 60 L18 112 L30 116 L50 72 Z" fill="url(#m)"/><path d="M88 60 L108 112 L98 116 L78 72 Z" fill="url(#m)"/><rect x="42.0" y="96" width="44" height="18" rx="8" fill="url(#m)"/><path d="M48.0 110 L42 150 L52 154 L58 116 Z" fill="url(#s)"/><path d="M80.0 110 L86 150 L76 154 L70 116 Z" fill="url(#s)"/><rect x="46" y="46" width="36" height="12" rx="6" fill="#9edcff" opacity=".8"/><rect x="54" y="26" width="8" height="4" rx="2" fill="#86e7ff"/><rect x="66" y="26" width="8" height="4" rx="2" fill="#86e7ff"/></svg>